<?xml version="1.0" encoding="UTF-8"?>
<svg id="Layer_1" xmlns="http://www.w3.org/2000/svg" version="1.1" viewBox="0 0 280 120">
  <!-- Generator: Adobe Illustrator 29.5.1, SVG Export Plug-In . SVG Version: 2.1.0 Build 141)  -->
  <defs>
    <style>
      .st0 {
        fill: #f55632;
      }

      .st1 {
        fill: #161616;
      }
    </style>
  </defs>
  <g>
    <path class="st1" d="M72.41,37.51v37.11h-4.56v-37.11s4.56,0,4.56,0Z"/>
    <path class="st1" d="M87.48,48.27c1.79-1.05,3.87-1.58,6.24-1.58s4.65.59,6.64,1.76,3.55,2.82,4.69,4.94,1.7,4.59,1.7,7.4-.57,5.25-1.7,7.42c-1.14,2.17-2.7,3.86-4.69,5.06-1.99,1.2-4.2,1.81-6.64,1.81s-4.41-.53-6.19-1.58c-1.79-1.05-3.15-2.36-4.09-3.94v18.1h-4.56v-40.52h4.56v5.06c.9-1.57,2.25-2.88,4.04-3.94h0ZM100.84,55.36c-.84-1.54-1.96-2.71-3.39-3.51-1.42-.8-2.98-1.2-4.69-1.2s-3.22.41-4.64,1.23-2.56,2.01-3.41,3.56c-.85,1.55-1.28,3.35-1.28,5.39s.43,3.89,1.28,5.44,1.99,2.74,3.41,3.56c1.42.82,2.97,1.23,4.64,1.23s3.27-.41,4.69-1.23,2.55-2.01,3.39-3.56c.84-1.55,1.25-3.38,1.25-5.49s-.42-3.88-1.25-5.42Z"/>
    <path class="st1" d="M111.47,53.38c1.14-2.12,2.7-3.77,4.69-4.94,1.99-1.17,4.2-1.76,6.64-1.76s4.5.52,6.27,1.55c1.77,1.04,3.09,2.34,3.96,3.91v-5.01h4.61v27.48h-4.61v-5.11c-.9,1.6-2.25,2.93-4.04,3.99-1.79,1.05-3.87,1.58-6.24,1.58s-4.65-.6-6.62-1.81c-1.97-1.2-3.53-2.89-4.66-5.06-1.14-2.17-1.7-4.65-1.7-7.42s.57-5.27,1.7-7.4h0ZM131.78,55.41c-.84-1.54-1.96-2.72-3.38-3.54s-2.98-1.23-4.69-1.23-3.26.4-4.66,1.2-2.52,1.97-3.36,3.51c-.84,1.54-1.25,3.34-1.25,5.42s.42,3.94,1.25,5.49c.84,1.55,1.96,2.74,3.36,3.56s2.96,1.23,4.66,1.23,3.27-.41,4.69-1.23c1.42-.82,2.55-2.01,3.38-3.56.84-1.55,1.25-3.37,1.25-5.44s-.42-3.88-1.25-5.42h0Z"/>
    <path class="st1" d="M182.82,47.96c1.67.89,2.99,2.22,3.96,3.99s1.45,3.93,1.45,6.47v16.2h-4.51v-15.54c0-2.74-.68-4.84-2.03-6.29s-3.18-2.18-5.49-2.18-4.26.76-5.67,2.28c-1.4,1.52-2.11,3.72-2.11,6.59v15.14h-4.51v-15.54c0-2.74-.68-4.84-2.03-6.29s-3.18-2.18-5.49-2.18-4.26.76-5.67,2.28c-1.4,1.52-2.11,3.72-2.11,6.59v15.14h-4.56v-27.48h4.56v3.96c.9-1.44,2.11-2.54,3.64-3.31,1.52-.77,3.2-1.15,5.04-1.15,2.31,0,4.35.52,6.12,1.55,1.77,1.04,3.09,2.56,3.96,4.56.77-1.94,2.04-3.44,3.81-4.51,1.77-1.07,3.74-1.6,5.92-1.6s4.04.44,5.72,1.33h0Z"/>
    <path class="st1" d="M194.41,53.38c1.14-2.12,2.7-3.77,4.69-4.94s4.2-1.76,6.64-1.76,4.5.52,6.27,1.55c1.77,1.04,3.09,2.34,3.96,3.91v-5.01h4.61v27.48h-4.61v-5.11c-.9,1.6-2.25,2.93-4.04,3.99-1.79,1.05-3.87,1.58-6.24,1.58s-4.65-.6-6.62-1.81c-1.97-1.2-3.53-2.89-4.66-5.06-1.14-2.17-1.7-4.65-1.7-7.42s.57-5.27,1.7-7.4h0ZM214.71,55.41c-.84-1.54-1.96-2.72-3.38-3.54s-2.98-1.23-4.69-1.23-3.26.4-4.66,1.2c-1.4.8-2.52,1.97-3.36,3.51-.84,1.54-1.25,3.34-1.25,5.42s.42,3.94,1.25,5.49c.84,1.55,1.96,2.74,3.36,3.56s2.96,1.23,4.66,1.23,3.27-.41,4.69-1.23,2.55-2.01,3.38-3.56c.84-1.55,1.25-3.37,1.25-5.44s-.42-3.88-1.25-5.42h0Z"/>
    <path class="st1" d="M250.67,47.14l-16.55,40.41h-4.71l5.42-13.24-11.08-27.18h5.07l8.62,22.26,8.52-22.26h4.71Z"/>
    <path class="st1" d="M258.91,73.31c-2.09-1.17-3.73-2.83-4.91-4.99-1.19-2.16-1.78-4.65-1.78-7.5s.61-5.29,1.83-7.45,2.88-3.81,4.99-4.96,4.46-1.73,7.07-1.73,4.96.58,7.07,1.73,3.77,2.8,4.99,4.94,1.83,4.63,1.83,7.47-.63,5.34-1.88,7.5-2.95,3.82-5.09,4.99c-2.14,1.17-4.51,1.76-7.12,1.76s-4.91-.58-6.99-1.76h-.01ZM270.52,69.9c1.44-.77,2.6-1.92,3.48-3.46.89-1.54,1.33-3.41,1.33-5.62s-.43-4.08-1.3-5.62-2.01-2.68-3.41-3.43-2.92-1.13-4.56-1.13-3.2.38-4.59,1.13c-1.39.75-2.5,1.9-3.34,3.43-.84,1.54-1.25,3.41-1.25,5.62s.41,4.13,1.23,5.67,1.91,2.68,3.28,3.43,2.87,1.13,4.51,1.13,3.18-.38,4.61-1.15h0Z"/>
  </g>
  <g>
    <polygon class="st0" points="26.42 12.33 31.5 .36 62.99 74.62 34.08 74.62 30.34 65.72 49.08 65.72 26.42 12.33"/>
    <polygon class="st0" points="25.96 55.49 21.84 45.77 16.68 57.95 27.01 57.95 30.34 65.72 13.38 65.72 9.61 74.62 0 74.62 21.62 23.65 35.05 55.28 25.96 55.49"/>
  </g>
  <g>
    <path class="st1" d="M3.99,113.81c-.78-.35-1.4-.84-1.84-1.46s-.67-1.35-.69-2.16h2.09c.07.7.36,1.3.87,1.78.51.48,1.25.72,2.23.72s1.67-.23,2.21-.7c.54-.47.81-1.07.81-1.8,0-.57-.16-1.04-.47-1.4-.32-.36-.71-.63-1.18-.82-.47-.19-1.11-.39-1.92-.6-.99-.26-1.78-.52-2.38-.77-.6-.26-1.1-.66-1.53-1.22-.42-.55-.64-1.29-.64-2.23,0-.82.21-1.54.62-2.17.42-.63,1-1.12,1.75-1.46.75-.34,1.62-.52,2.59-.52,1.41,0,2.56.35,3.45,1.05.9.7,1.4,1.64,1.52,2.8h-2.15c-.07-.57-.37-1.08-.9-1.52-.53-.44-1.23-.66-2.11-.66-.82,0-1.48.21-2,.64-.52.42-.77,1.01-.77,1.78,0,.55.15.99.46,1.33.31.34.69.61,1.14.79s1.09.38,1.9.61c.99.27,1.79.54,2.39.81s1.12.67,1.55,1.23c.43.55.65,1.3.65,2.25,0,.73-.19,1.42-.58,2.07s-.96,1.17-1.72,1.57-1.66.6-2.69.6-1.88-.18-2.66-.53h0Z"/>
    <path class="st1" d="M31.16,102.75c.72.38,1.28.95,1.7,1.71s.62,1.69.62,2.78v6.95h-1.94v-6.67c0-1.18-.29-2.08-.87-2.7-.58-.62-1.37-.94-2.36-.94s-1.83.33-2.43.98-.9,1.6-.9,2.83v6.5h-1.94v-6.67c0-1.18-.29-2.08-.87-2.7-.58-.62-1.37-.94-2.36-.94s-1.83.33-2.43.98-.9,1.6-.9,2.83v6.5h-1.96v-11.79h1.96v1.7c.39-.62.91-1.09,1.56-1.42s1.37-.5,2.16-.5c.99,0,1.86.22,2.62.67s1.33,1.1,1.7,1.96c.33-.83.87-1.48,1.64-1.94s1.61-.69,2.54-.69,1.74.19,2.45.57h.01Z"/>
    <path class="st1" d="M36.69,105.08c.49-.91,1.16-1.62,2.01-2.12s1.8-.75,2.85-.75,1.93.22,2.69.67c.76.44,1.33,1,1.7,1.68v-2.15h1.98v11.79h-1.98v-2.19c-.39.69-.97,1.26-1.73,1.71-.77.45-1.66.68-2.68.68s-1.99-.26-2.84-.78-1.51-1.24-2-2.17-.73-1.99-.73-3.18.24-2.26.73-3.17v-.02ZM45.4,105.95c-.36-.66-.84-1.17-1.45-1.52s-1.28-.53-2.01-.53-1.4.17-2,.52c-.6.34-1.08.85-1.44,1.51-.36.66-.54,1.43-.54,2.32s.18,1.69.54,2.36.84,1.18,1.44,1.53,1.27.53,2,.53,1.4-.18,2.01-.53c.61-.35,1.09-.86,1.45-1.53s.54-1.45.54-2.33-.18-1.66-.54-2.32h0Z"/>
    <path class="st1" d="M54.66,102.74c.64-.37,1.42-.56,2.33-.56v2.02h-.52c-2.19,0-3.29,1.19-3.29,3.57v6.41h-1.96v-11.79h1.96v1.91c.34-.67.84-1.2,1.47-1.57h.01Z"/>
    <path class="st1" d="M61.65,104.01v6.95c0,.57.12.98.37,1.22s.67.36,1.27.36h1.44v1.66h-1.76c-1.09,0-1.91-.25-2.45-.75-.55-.5-.82-1.33-.82-2.47v-6.95h-1.53v-1.61h1.53v-2.97h1.96v2.97h3.08v1.61h-3.08v-.02Z"/>
    <path class="st1" d="M81.75,100.11c1.2.61,2.12,1.48,2.75,2.61.64,1.13.96,2.47.96,4s-.32,2.87-.96,3.99c-.64,1.13-1.56,1.99-2.75,2.58-1.2.6-2.61.89-4.25.89h-4.67v-15h4.67c1.64,0,3.05.31,4.25.91v.02ZM81.94,111.04c1.02-1.03,1.53-2.46,1.53-4.31s-.51-3.32-1.54-4.37-2.5-1.57-4.42-1.57h-2.71v11.79h2.71c1.94,0,3.41-.51,4.43-1.54Z"/>
    <path class="st1" d="M88.05,105.08c.49-.91,1.16-1.62,2.01-2.12s1.8-.75,2.85-.75,1.93.22,2.69.67c.76.44,1.33,1,1.7,1.68v-2.15h1.98v11.79h-1.98v-2.19c-.39.69-.97,1.26-1.73,1.71-.77.45-1.66.68-2.68.68s-1.99-.26-2.84-.78-1.51-1.24-2-2.17-.73-1.99-.73-3.18.24-2.26.73-3.17v-.02ZM96.76,105.95c-.36-.66-.84-1.17-1.45-1.52s-1.28-.53-2.01-.53-1.4.17-2,.52c-.6.34-1.08.85-1.44,1.51s-.54,1.43-.54,2.32.18,1.69.54,2.36.84,1.18,1.44,1.53c.6.35,1.27.53,2,.53s1.4-.18,2.01-.53,1.09-.86,1.45-1.53.54-1.45.54-2.33-.18-1.66-.54-2.32h0Z"/>
    <path class="st1" d="M104.98,104.01v6.95c0,.57.12.98.37,1.22s.67.36,1.27.36h1.44v1.66h-1.76c-1.09,0-1.91-.25-2.45-.75-.55-.5-.82-1.33-.82-2.47v-6.95h-1.53v-1.61h1.53v-2.97h1.96v2.97h3.08v1.61h-3.08v-.02Z"/>
    <path class="st1" d="M110.43,105.08c.49-.91,1.16-1.62,2.01-2.12s1.8-.75,2.85-.75,1.93.22,2.69.67c.76.44,1.33,1,1.7,1.68v-2.15h1.98v11.79h-1.98v-2.19c-.39.69-.97,1.26-1.73,1.71-.77.45-1.66.68-2.68.68s-1.99-.26-2.84-.78-1.51-1.24-2-2.17-.73-1.99-.73-3.18.24-2.26.73-3.17v-.02ZM119.14,105.95c-.36-.66-.84-1.17-1.45-1.52s-1.28-.53-2.01-.53-1.4.17-2,.52c-.6.34-1.08.85-1.44,1.51s-.54,1.43-.54,2.32.18,1.69.54,2.36.84,1.18,1.44,1.53c.6.35,1.27.53,2,.53s1.4-.18,2.01-.53,1.09-.86,1.45-1.53.54-1.45.54-2.33-.18-1.66-.54-2.32h0Z"/>
    <path class="st1" d="M135.51,104.01h-2.47v10.18h-1.96v-10.18h-1.53v-1.61h1.53v-.84c0-1.32.34-2.28,1.02-2.89.68-.61,1.78-.91,3.28-.91v1.64c-.86,0-1.47.17-1.82.51-.35.34-.53.89-.53,1.67v.84h2.47v1.61-.02Z"/>
    <path class="st1" d="M141.23,102.74c.64-.37,1.42-.56,2.33-.56v2.02h-.52c-2.19,0-3.29,1.19-3.29,3.57v6.41h-1.96v-11.79h1.96v1.91c.34-.67.84-1.2,1.47-1.57h0Z"/>
    <path class="st1" d="M147.96,113.63c-.9-.5-1.6-1.22-2.11-2.14-.51-.93-.76-2-.76-3.22s.26-2.27.79-3.2c.52-.93,1.24-1.64,2.14-2.13.9-.5,1.92-.74,3.03-.74s2.13.25,3.03.74,1.62,1.2,2.14,2.12c.52.92.79,1.99.79,3.21s-.27,2.29-.81,3.22-1.27,1.64-2.18,2.14c-.92.5-1.94.75-3.06.75s-2.1-.25-3-.75ZM152.94,112.17c.62-.33,1.12-.82,1.5-1.48s.57-1.46.57-2.41-.19-1.75-.56-2.41-.86-1.15-1.46-1.47-1.26-.48-1.96-.48-1.37.16-1.97.48-1.07.81-1.43,1.47c-.36.66-.54,1.46-.54,2.41s.18,1.77.53,2.43.82,1.15,1.41,1.47,1.23.48,1.94.48,1.36-.16,1.98-.5h-.01Z"/>
    <path class="st1" d="M176.22,102.75c.72.38,1.28.95,1.7,1.71s.62,1.69.62,2.78v6.95h-1.94v-6.67c0-1.18-.29-2.08-.87-2.7-.58-.62-1.37-.94-2.36-.94s-1.83.33-2.43.98c-.6.65-.9,1.6-.9,2.83v6.5h-1.94v-6.67c0-1.18-.29-2.08-.87-2.7-.58-.62-1.37-.94-2.36-.94s-1.83.33-2.43.98c-.6.65-.9,1.6-.9,2.83v6.5h-1.96v-11.79h1.96v1.7c.39-.62.91-1.09,1.56-1.42s1.37-.5,2.16-.5c.99,0,1.86.22,2.62.67s1.33,1.1,1.7,1.96c.33-.83.87-1.48,1.64-1.94s1.61-.69,2.54-.69,1.74.19,2.45.57h0Z"/>
    <path class="st1" d="M189.89,104.01v6.95c0,.57.12.98.37,1.22s.67.36,1.27.36h1.44v1.66h-1.76c-1.09,0-1.91-.25-2.45-.75-.55-.5-.82-1.33-.82-2.47v-6.95h-1.53v-1.61h1.53v-2.97h1.96v2.97h3.08v1.61h-3.08v-.02Z"/>
    <path class="st1" d="M203.59,102.75c.72.38,1.28.95,1.69,1.71s.61,1.69.61,2.78v6.95h-1.94v-6.67c0-1.18-.29-2.08-.88-2.7-.59-.62-1.39-.94-2.41-.94s-1.85.32-2.46.97-.91,1.59-.91,2.82v6.52h-1.96v-15.92h1.96v5.81c.39-.6.92-1.07,1.6-1.4.68-.33,1.44-.5,2.29-.5s1.69.19,2.41.57h0Z"/>
    <path class="st1" d="M219.8,109.03h-9.42c.07,1.16.47,2.07,1.19,2.72s1.6.98,2.64.98c.85,0,1.55-.2,2.12-.59.57-.39.96-.92,1.19-1.58h2.11c-.32,1.13-.95,2.05-1.89,2.76-.95.71-2.12,1.07-3.53,1.07-1.12,0-2.12-.25-3-.75s-1.57-1.22-2.08-2.14c-.5-.93-.75-2-.75-3.22s.24-2.29.73-3.21c.49-.92,1.17-1.62,2.06-2.12s1.9-.74,3.04-.74,2.11.24,2.97.73c.86.49,1.52,1.16,1.99,2.01s.7,1.82.7,2.89c0,.37-.02.77-.06,1.18h0ZM217.34,105.51c-.33-.54-.78-.95-1.34-1.23-.57-.28-1.19-.42-1.88-.42-.99,0-1.83.32-2.53.95s-1.09,1.51-1.19,2.63h7.44c0-.75-.17-1.39-.5-1.93Z"/>
    <path class="st1" d="M230.15,100.79v5.01h5.47v1.61h-5.47v5.16h6.11v1.61h-8.07v-15.02h8.07v1.61h-6.11v.02Z"/>
    <path class="st1" d="M239.23,105.08c.49-.91,1.16-1.62,2.01-2.12s1.81-.75,2.87-.75c.92,0,1.77.21,2.56.64s1.39.98,1.81,1.67v-6.24h1.98v15.92h-1.98v-2.22c-.39.7-.96,1.28-1.72,1.73-.76.45-1.65.68-2.67.68s-2-.26-2.85-.78-1.52-1.24-2.01-2.17c-.49-.93-.73-1.99-.73-3.18s.24-2.26.73-3.17h0ZM247.94,105.95c-.36-.66-.84-1.17-1.45-1.52s-1.28-.53-2.01-.53-1.4.17-2,.52c-.6.34-1.08.85-1.44,1.51s-.54,1.43-.54,2.32.18,1.69.54,2.36.84,1.18,1.44,1.53,1.27.53,2,.53,1.4-.18,2.01-.53,1.09-.86,1.45-1.53.54-1.45.54-2.33-.18-1.66-.54-2.32h0Z"/>
    <path class="st1" d="M261.31,102.87c.77.44,1.34,1,1.71,1.68v-2.15h1.98v12.05c0,1.08-.23,2.03-.69,2.87s-1.12,1.5-1.97,1.97-1.85.71-2.98.71c-1.55,0-2.84-.37-3.87-1.1-1.03-.73-1.64-1.73-1.83-2.99h1.94c.22.72.66,1.29,1.33,1.73s1.49.66,2.43.66c1.08,0,1.95-.34,2.64-1.01s1.02-1.62,1.02-2.84v-2.47c-.39.69-.96,1.26-1.72,1.72s-1.65.69-2.67.69-2-.26-2.85-.78-1.52-1.24-2.01-2.17c-.49-.93-.73-1.99-.73-3.18s.24-2.26.73-3.17c.49-.91,1.16-1.62,2.01-2.12.85-.5,1.8-.75,2.85-.75s1.91.22,2.68.67v-.02ZM262.49,105.95c-.36-.66-.84-1.17-1.45-1.52-.61-.35-1.28-.53-2.01-.53s-1.4.17-2,.52c-.6.34-1.08.85-1.44,1.51s-.54,1.43-.54,2.32.18,1.69.54,2.36.84,1.18,1.44,1.53,1.27.53,2,.53,1.4-.18,2.01-.53c.61-.35,1.09-.86,1.45-1.53.36-.67.54-1.45.54-2.33s-.18-1.66-.54-2.32h0Z"/>
    <path class="st1" d="M279.01,109.03h-9.42c.07,1.16.47,2.07,1.19,2.72s1.6.98,2.64.98c.85,0,1.55-.2,2.12-.59s.96-.92,1.19-1.58h2.11c-.32,1.13-.95,2.05-1.89,2.76-.95.71-2.12,1.07-3.53,1.07-1.12,0-2.12-.25-3-.75s-1.57-1.22-2.08-2.14c-.5-.93-.75-2-.75-3.22s.24-2.29.73-3.21c.49-.92,1.17-1.62,2.06-2.12s1.9-.74,3.04-.74,2.11.24,2.97.73c.86.49,1.52,1.16,1.99,2.01s.7,1.82.7,2.89c0,.37-.02.77-.06,1.18h-.01ZM276.56,105.51c-.33-.54-.78-.95-1.34-1.23-.57-.28-1.19-.42-1.88-.42-.99,0-1.83.32-2.53.95s-1.09,1.51-1.19,2.63h7.44c0-.75-.17-1.39-.5-1.93Z"/>
  </g>
</svg>