<?xml version="1.0" encoding="UTF-8"?>
<svg id="Layer_1" xmlns="http://www.w3.org/2000/svg" version="1.1" viewBox="0 0 280 88">
  <!-- Generator: Adobe Illustrator 29.5.1, SVG Export Plug-In . SVG Version: 2.1.0 Build 141)  -->
  <defs>
    <style>
      .st0 {
        fill: #fff;
      }

      .st1 {
        fill: #f55632;
      }
    </style>
  </defs>
  <g id="logo">
    <g id="logotype">
      <path class="st0" d="M72.41,37.5v37.11h-4.56v-37.11h4.56Z"/>
      <path class="st0" d="M87.47,48.26c1.78-1.05,3.87-1.58,6.24-1.58s4.65.59,6.64,1.75c1.99,1.17,3.55,2.82,4.69,4.94,1.13,2.12,1.7,4.59,1.7,7.39s-.57,5.25-1.7,7.43-2.7,3.86-4.69,5.06c-1.99,1.21-4.21,1.8-6.64,1.8s-4.4-.53-6.19-1.58-3.16-2.36-4.08-3.94v18.1h-4.56v-40.52h4.56v5.06c.91-1.57,2.25-2.89,4.03-3.94h0s0,.03,0,.03ZM100.84,55.35c-.84-1.54-1.97-2.71-3.38-3.51-1.42-.8-2.98-1.21-4.69-1.21s-3.22.41-4.64,1.23-2.56,2-3.41,3.56c-.86,1.56-1.28,3.35-1.28,5.39s.42,3.89,1.28,5.45,1.99,2.74,3.41,3.56c1.42.81,2.97,1.23,4.64,1.23s3.27-.41,4.69-1.23,2.55-2.01,3.38-3.56c.84-1.56,1.26-3.38,1.26-5.49s-.42-3.88-1.26-5.41h0Z"/>
      <path class="st0" d="M111.47,53.37c1.13-2.12,2.7-3.76,4.69-4.94,1.99-1.17,4.21-1.75,6.64-1.75s4.5.52,6.27,1.56c1.77,1.03,3.09,2.34,3.96,3.91v-5.01h4.61v27.47h-4.61v-5.12c-.91,1.61-2.25,2.93-4.03,3.99-1.78,1.05-3.87,1.58-6.24,1.58s-4.64-.6-6.62-1.8c-1.97-1.21-3.53-2.89-4.66-5.06-1.13-2.18-1.7-4.65-1.7-7.43s.57-5.27,1.7-7.39h-.01ZM131.78,55.41c-.84-1.54-1.96-2.71-3.38-3.54-1.42-.81-2.98-1.23-4.69-1.23s-3.26.4-4.66,1.21-2.53,1.97-3.36,3.51-1.26,3.34-1.26,5.41.42,3.94,1.26,5.49c.84,1.56,1.96,2.74,3.36,3.56,1.4.81,2.96,1.23,4.66,1.23s3.27-.41,4.69-1.23c1.42-.82,2.55-2.01,3.38-3.56.84-1.56,1.26-3.37,1.26-5.45s-.42-3.88-1.26-5.41h0Z"/>
      <path class="st0" d="M182.81,47.96c1.67.89,2.99,2.22,3.96,3.99s1.45,3.93,1.45,6.47v16.19h-4.52v-15.54c0-2.74-.68-4.84-2.03-6.29s-3.19-2.18-5.49-2.18-4.26.76-5.66,2.28c-1.4,1.53-2.1,3.72-2.1,6.59v15.14h-4.51v-15.54c0-2.74-.68-4.84-2.03-6.29s-3.19-2.18-5.49-2.18-4.26.76-5.66,2.28c-1.4,1.53-2.1,3.72-2.1,6.59v15.14h-4.56v-27.47h4.56v3.96c.91-1.43,2.11-2.54,3.63-3.31s3.2-1.16,5.04-1.16c2.31,0,4.34.52,6.12,1.56,1.77,1.04,3.09,2.56,3.96,4.56.77-1.94,2.04-3.44,3.82-4.52s3.74-1.61,5.92-1.61,4.04.44,5.71,1.33h-.02,0Z"/>
      <path class="st0" d="M194.39,53.37c1.13-2.12,2.7-3.76,4.69-4.94,1.99-1.17,4.21-1.75,6.64-1.75s4.5.52,6.27,1.56c1.77,1.03,3.09,2.34,3.96,3.91v-5.01h4.61v27.47h-4.61v-5.12c-.91,1.61-2.25,2.93-4.03,3.99-1.78,1.05-3.87,1.58-6.24,1.58s-4.64-.6-6.62-1.8c-1.97-1.21-3.53-2.89-4.66-5.06-1.13-2.18-1.7-4.65-1.7-7.43s.57-5.27,1.7-7.39h-.01ZM214.7,55.41c-.84-1.54-1.96-2.71-3.38-3.54-1.42-.81-2.98-1.23-4.69-1.23s-3.26.4-4.66,1.21c-1.4.8-2.53,1.97-3.36,3.51s-1.26,3.34-1.26,5.41.42,3.94,1.26,5.49c.84,1.56,1.96,2.74,3.36,3.56,1.4.81,2.96,1.23,4.66,1.23s3.27-.41,4.69-1.23,2.55-2.01,3.38-3.56c.84-1.56,1.26-3.37,1.26-5.45s-.42-3.88-1.26-5.41h0Z"/>
      <path class="st0" d="M250.66,47.12l-16.54,40.42h-4.71l5.41-13.24-11.09-27.17h5.06l8.62,22.27,8.53-22.27h4.72Z"/>
      <path class="st0" d="M258.9,73.3c-2.09-1.17-3.72-2.84-4.91-4.99-1.19-2.16-1.78-4.65-1.78-7.5s.61-5.29,1.83-7.45,2.89-3.82,4.99-4.96,4.47-1.73,7.07-1.73,4.96.58,7.07,1.73,3.76,2.79,4.99,4.94c1.22,2.13,1.84,4.63,1.84,7.47s-.63,5.34-1.88,7.5-2.95,3.82-5.08,4.99c-2.15,1.18-4.52,1.75-7.12,1.75s-4.91-.59-6.99-1.75h-.03ZM270.51,69.9c1.43-.77,2.6-1.92,3.49-3.45.89-1.54,1.33-3.41,1.33-5.62s-.43-4.07-1.3-5.62c-.87-1.54-2-2.68-3.41-3.43-1.4-.75-2.93-1.12-4.56-1.12s-3.2.37-4.59,1.12c-1.39.75-2.5,1.9-3.33,3.43-.84,1.54-1.26,3.41-1.26,5.62s.41,4.13,1.23,5.66,1.91,2.68,3.28,3.43,2.88,1.12,4.52,1.12,3.18-.38,4.61-1.16h0v.02h0Z"/>
    </g>
    <g id="logomark">
      <polygon class="st1" points="26.42 12.32 31.49 .36 62.99 74.61 34.07 74.61 30.34 65.71 49.08 65.71 26.42 12.32"/>
      <polygon class="st1" points="35.05 55.27 21.63 23.63 0 74.61 9.61 74.61 13.38 65.71 30.34 65.71 27.01 57.94 16.68 57.94 21.84 45.75 25.96 55.49 35.05 55.27"/>
    </g>
  </g>
</svg>